<?xml version="1.0" encoding="iso-8859-1"?>
<!-- Uploaded to: SVG Repo, www.svgrepo.com, Generator: SVG Repo Mixer Tools -->
<svg version="1.1" id="Layer_1" xmlns="http://www.w3.org/2000/svg" xmlns:xlink="http://www.w3.org/1999/xlink" 
	 viewBox="0 0 512.001 512.001" xml:space="preserve">
<rect x="103.939" y="39.431" style="fill:#FEC986;" width="304.129" height="120.051"/>
<rect x="39.912" y="279.529" style="fill:#FFFFFF;" width="152.064" height="72.031"/>
<g>
	<rect x="183.973" y="423.59" style="fill:#C8546F;" width="32.013" height="48.02"/>
	<rect x="15.715" y="423.59" style="fill:#C8546F;" width="32.014" height="48.02"/>
</g>
<g>
	<rect x="31.908" y="247.516" style="fill:#9B4573;" width="168.071" height="32.013"/>
	<rect x="15.901" y="351.56" style="fill:#9B4573;" width="200.085" height="48.02"/>
</g>
<rect x="320.062" y="279.529" style="fill:#FFFFFF;" width="152.064" height="72.031"/>
<g>
	<rect x="464.123" y="423.59" style="fill:#C8546F;" width="32.012" height="48.02"/>
	<rect x="295.862" y="423.59" style="fill:#C8546F;" width="32.014" height="48.02"/>
</g>
<g>
	<rect x="312.058" y="247.516" style="fill:#9B4573;" width="168.071" height="32.013"/>
	<rect x="296.052" y="351.56" style="fill:#9B4573;" width="200.085" height="48.02"/>
</g>
<g>
	<rect x="7.898" y="399.58" style="fill:#FEC986;" width="216.092" height="24.009"/>
	<rect x="288.017" y="399.58" style="fill:#FEC986;" width="216.092" height="24.009"/>
</g>
<g>
	<path style="fill:#1D1D1B;" d="M231.886,431.486H0V391.68h231.886V431.486z M15.796,415.69h200.293v-8.214H15.796V415.69z"/>
	<path style="fill:#1D1D1B;" d="M512,431.486H280.115V391.68h231.886v39.806H512z M295.912,415.69h200.293v-8.214H295.912V415.69z"
		/>
	<polygon style="fill:#1D1D1B;" points="55.813,479.507 8.003,479.507 8.003,439.595 23.8,439.595 23.8,463.711 40.017,463.711 
		40.017,439.595 55.813,439.595 	"/>
	<polygon style="fill:#1D1D1B;" points="224.161,479.507 176.353,479.507 176.353,439.595 192.149,439.595 192.149,463.711 
		208.365,463.711 208.365,439.595 224.161,439.595 	"/>
	<polygon style="fill:#1D1D1B;" points="335.928,479.507 288.119,479.507 288.119,439.595 303.915,439.595 303.915,463.711 
		320.131,463.711 320.131,439.595 335.928,439.595 	"/>
	<polygon style="fill:#1D1D1B;" points="504.277,479.507 456.467,479.507 456.467,439.595 472.263,439.595 472.263,463.711 
		488.481,463.711 488.481,439.595 504.277,439.595 	"/>
	<polygon style="fill:#1D1D1B;" points="223.882,383.572 208.086,383.572 208.086,359.458 23.8,359.458 23.8,383.572 8.003,383.572 
		8.003,343.662 223.882,343.662 	"/>
</g>
<g>
	<rect x="39.912" y="367.672" style="fill:#FFFFFF;" width="16.007" height="15.796"/>
	<rect x="175.969" y="367.672" style="fill:#FFFFFF;" width="16.007" height="15.796"/>
	<rect x="71.925" y="367.672" style="fill:#FFFFFF;" width="88.037" height="15.796"/>
</g>
<g>
	<rect x="31.908" y="247.621" style="fill:#1D1D1B;" width="168.071" height="15.796"/>
	
		<rect x="92.058" y="298.575" transform="matrix(-0.7071 -0.7071 0.7071 -0.7071 -52.4914 609.3577)" style="fill:#1D1D1B;" width="15.796" height="33.951"/>
	
		<rect x="124.068" y="298.574" transform="matrix(-0.7071 -0.7071 0.7071 -0.7071 2.1525 631.9895)" style="fill:#1D1D1B;" width="15.796" height="33.951"/>
	<polygon style="fill:#1D1D1B;" points="503.997,383.572 488.2,383.572 488.2,359.458 303.915,359.458 303.915,383.572 
		288.119,383.572 288.119,343.662 503.997,343.662 	"/>
</g>
<g>
	<rect x="320.03" y="367.672" style="fill:#FFFFFF;" width="16.007" height="15.796"/>
	<rect x="456.088" y="367.672" style="fill:#FFFFFF;" width="16.007" height="15.796"/>
	<rect x="352.044" y="367.672" style="fill:#FFFFFF;" width="88.037" height="15.796"/>
</g>
<g>
	<rect x="312.027" y="247.621" style="fill:#1D1D1B;" width="168.071" height="15.796"/>
	<polygon style="fill:#1D1D1B;" points="216.089,303.645 199.872,303.645 199.872,271.631 32.014,271.631 32.014,303.645 
		15.796,303.645 15.796,295.536 0,295.536 0,327.55 15.796,327.55 15.796,319.441 32.014,319.441 32.014,335.553 47.81,335.553 
		47.81,287.428 184.076,287.428 184.076,335.553 199.872,335.553 199.872,319.441 216.089,319.441 216.089,327.55 231.886,327.55 
		231.886,295.536 216.089,295.536 	"/>
	<polygon style="fill:#1D1D1B;" points="496.204,295.536 496.204,303.645 479.986,303.645 479.986,271.631 312.128,271.631 
		312.128,303.645 295.912,303.645 295.912,295.536 280.115,295.536 280.115,327.55 295.912,327.55 295.912,319.441 312.128,319.441 
		312.128,335.553 327.924,335.553 327.924,287.428 464.19,287.428 464.19,335.553 479.986,335.553 479.986,319.441 496.204,319.441 
		496.204,327.55 512,327.55 512,295.536 	"/>
	
		<rect x="372.168" y="298.56" transform="matrix(-0.7071 -0.7071 0.7071 -0.7071 425.6966 807.3992)" style="fill:#1D1D1B;" width="15.796" height="33.951"/>
	
		<rect x="404.195" y="298.563" transform="matrix(-0.7071 -0.7071 0.7071 -0.7071 480.3681 830.051)" style="fill:#1D1D1B;" width="15.796" height="33.951"/>
	<path style="fill:#1D1D1B;" d="M415.96,168.339H96.04V32.494H415.96V168.339z M111.836,152.543h288.328V48.29H111.836V152.543z"/>
	<path style="fill:#1D1D1B;" d="M127.948,134.509V63.482h31.41c3.269,0,6.289,0.683,9.058,2.043c2.764,1.368,5.15,3.176,7.152,5.407
		c1.999,2.239,3.566,4.77,4.702,7.604c1.131,2.833,1.702,5.682,1.702,8.549c0,4.607-1.152,8.793-3.452,12.562
		s-5.422,6.481-9.354,8.15l16.206,26.712h-15.506l-14.508-23.814h-13.605v23.814C141.753,134.509,127.948,134.509,127.948,134.509z
		 M141.752,98.597h17.309c1.266,0,2.451-0.301,3.55-0.904c1.103-0.602,2.051-1.416,2.853-2.451c0.798-1.033,1.433-2.256,1.901-3.655
		c0.464-1.401,0.7-2.899,0.7-4.502c0-1.662-0.269-3.2-0.801-4.601c-0.534-1.4-1.25-2.613-2.15-3.647
		c-0.904-1.034-1.938-1.831-3.101-2.402c-1.168-0.57-2.353-0.855-3.554-0.855h-16.707v23.016H141.752z"/>
	<path style="fill:#1D1D1B;" d="M243.798,122.402v12.107h-49.321V63.482h48.418V75.58h-34.614v17.114h29.912v11.204h-29.912v18.505
		H243.798z"/>
	<path style="fill:#1D1D1B;" d="M268.405,88.99v45.52h-13.804V63.482h10.702l37.016,46.619V63.58h13.808v70.929h-11.207
		L268.405,88.99z"/>
	<path style="fill:#1D1D1B;" d="M384.053,75.581h-22.707v58.929h-13.707V75.581h-22.711V63.482h59.124v12.099H384.053z"/>
</g>
</svg>